<?xml version="1.0" encoding="UTF-8" standalone="no"?>
<svg
   xmlns:dc="http://purl.org/dc/elements/1.1/"
   xmlns:cc="http://creativecommons.org/ns#"
   xmlns:rdf="http://www.w3.org/1999/02/22-rdf-syntax-ns#"
   xmlns:svg="http://www.w3.org/2000/svg"
   xmlns="http://www.w3.org/2000/svg"
   xmlns:xlink="http://www.w3.org/1999/xlink"
   xmlns:sodipodi="http://sodipodi.sourceforge.net/DTD/sodipodi-0.dtd"
   xmlns:inkscape="http://www.inkscape.org/namespaces/inkscape"
   sodipodi:docname="jumbo.svg"
   inkscape:version="1.0 (4035a4fb49, 2020-05-01)"
   id="svg8"
   version="1.1"
   viewBox="0 0 561.45471 366.94101"
   height="366.94101mm"
   width="561.45471mm">
  <defs
     id="defs2">
    <linearGradient
       id="linearGradient3198"
       inkscape:collect="always">
      <stop
         id="stop3194"
         offset="0"
         style="stop-color:#ffffff;stop-opacity:1;" />
      <stop
         id="stop3196"
         offset="1"
         style="stop-color:#ffffff;stop-opacity:0;" />
    </linearGradient>
    <linearGradient
       id="linearGradient2914"
       inkscape:collect="always">
      <stop
         id="stop2910"
         offset="0"
         style="stop-color:#00d4aa;stop-opacity:1;" />
      <stop
         id="stop2912"
         offset="1"
         style="stop-color:#00d4aa;stop-opacity:0;" />
    </linearGradient>
    <filter
       height="1.146036"
       y="-0.073018005"
       width="1.1541852"
       x="-0.077092595"
       id="filter2800"
       style="color-interpolation-filters:sRGB"
       inkscape:collect="always">
      <feGaussianBlur
         id="feGaussianBlur2802"
         stdDeviation="3.347158"
         inkscape:collect="always" />
    </filter>
    <filter
       height="1.2705433"
       y="-0.13527165"
       width="1.103766"
       x="-0.051883003"
       id="filter2812"
       style="color-interpolation-filters:sRGB"
       inkscape:collect="always">
      <feGaussianBlur
         id="feGaussianBlur2814"
         stdDeviation="2.9954665"
         inkscape:collect="always" />
    </filter>
    <filter
       height="1.1399628"
       y="-0.069981392"
       width="1.161588"
       x="-0.080794019"
       id="filter2818"
       style="color-interpolation-filters:sRGB"
       inkscape:collect="always">
      <feGaussianBlur
         id="feGaussianBlur2820"
         stdDeviation="4.0822479"
         inkscape:collect="always" />
    </filter>
    <filter
       height="1.15"
       y="-0.075"
       width="1.15"
       x="-0.075"
       id="filter2824"
       style="color-interpolation-filters:sRGB"
       inkscape:collect="always">
      <feGaussianBlur
         id="feGaussianBlur2826"
         stdDeviation="2.8125"
         inkscape:collect="always" />
    </filter>
    <filter
       height="1.15"
       y="-0.075"
       width="1.15"
       x="-0.075"
       id="filter2836"
       style="color-interpolation-filters:sRGB"
       inkscape:collect="always">
      <feGaussianBlur
         id="feGaussianBlur2838"
         stdDeviation="2.8125"
         inkscape:collect="always" />
    </filter>
    <filter
       height="1.15"
       y="-0.075"
       width="1.15"
       x="-0.075"
       id="filter2842"
       style="color-interpolation-filters:sRGB"
       inkscape:collect="always">
      <feGaussianBlur
         id="feGaussianBlur2844"
         stdDeviation="2.8125"
         inkscape:collect="always" />
    </filter>
    <radialGradient
       gradientUnits="userSpaceOnUse"
       gradientTransform="matrix(1,0,0,0.57735036,0,63.397439)"
       r="173.20508"
       fy="149.99998"
       fx="129.90381"
       cy="149.99998"
       cx="129.90381"
       id="radialGradient2916"
       xlink:href="#linearGradient2914"
       inkscape:collect="always" />
    <linearGradient
       gradientUnits="userSpaceOnUse"
       y2="149.99998"
       x2="303.10889"
       y1="149.99998"
       x1="-43.30127"
       id="linearGradient2924"
       xlink:href="#linearGradient2914"
       inkscape:collect="always" />
    <radialGradient
       gradientUnits="userSpaceOnUse"
       gradientTransform="matrix(0,104.99759,-105,2.0021412e-5,25898.205,-17941.12)"
       r="1"
       fy="245"
       fx="173.20509"
       cy="245"
       cx="173.20509"
       id="radialGradient3202"
       xlink:href="#linearGradient3198"
       inkscape:collect="always" />
    <radialGradient
       r="1"
       fy="245"
       fx="173.20509"
       cy="245"
       cx="173.20509"
       gradientTransform="matrix(0,104.99759,-105,2.0021412e-5,26028.109,-18016.12)"
       gradientUnits="userSpaceOnUse"
       id="radialGradient3210"
       xlink:href="#linearGradient3198"
       inkscape:collect="always" />
    <radialGradient
       r="1"
       fy="245"
       fx="173.20509"
       cy="245"
       cx="173.20509"
       gradientTransform="matrix(0,104.99759,-105,2.0021412e-5,25681.699,-18066.12)"
       gradientUnits="userSpaceOnUse"
       id="radialGradient3214"
       xlink:href="#linearGradient3198"
       inkscape:collect="always" />
    <radialGradient
       r="1"
       fy="245"
       fx="173.20509"
       cy="245"
       cx="173.20509"
       gradientTransform="matrix(0,104.99759,-105,2.0021412e-5,25811.603,-18141.12)"
       gradientUnits="userSpaceOnUse"
       id="radialGradient3218"
       xlink:href="#linearGradient3198"
       inkscape:collect="always" />
    <clipPath
       id="a">
      <path
         d="M239.03 226.605l-42.13 24.317c-1.578.91-2.546 2.59-2.546 4.406v48.668c0 1.817.968 3.496 2.546 4.406l42.133 24.336c1.575.907 3.517.907 5.09 0l42.126-24.336c1.57-.91 2.54-2.59 2.54-4.406v-48.668c0-1.816-.97-3.496-2.55-4.406l-42.12-24.317c-.79-.453-1.67-.68-2.55-.68-.88 0-1.76.227-2.55.68"
         id="path3220" />
    </clipPath>
    <linearGradient
       id="b"
       x1="-.348"
       x2="1.251"
       gradientTransform="matrix(-38.064915,77.652126,-77.652126,-38.064915,258.72325,244.62943)"
       gradientUnits="userSpaceOnUse">
      <stop
         offset=".3"
         stop-color="#3E863D"
         id="stop3223" />
      <stop
         offset=".5"
         stop-color="#55934F"
         id="stop3225" />
      <stop
         offset=".8"
         stop-color="#5AAD45"
         id="stop3227" />
    </linearGradient>
    <clipPath
       id="c">
      <path
         d="M195.398 307.086c.403.523.907.976 1.5 1.316l36.14 20.875 6.02 3.46c.9.52 1.926.74 2.934.665.336-.027.672-.09 1-.183l44.434-81.36c-.34-.37-.738-.68-1.184-.94l-27.586-15.93-14.582-8.39c-.414-.24-.863-.41-1.32-.53zm0 0"
         id="path3230" />
    </clipPath>
    <linearGradient
       id="d"
       x1="-.456"
       x2=".582"
       gradientTransform="matrix(106.8057,-78.916731,78.916731,106.8057,235.18824,285.39477)"
       gradientUnits="userSpaceOnUse">
      <stop
         offset=".57"
         stop-color="#3E863D"
         id="stop3233" />
      <stop
         offset=".72"
         stop-color="#619857"
         id="stop3235" />
      <stop
         offset="1"
         stop-color="#76AC64"
         id="stop3237" />
    </linearGradient>
    <clipPath
       id="e">
      <path
         d="M241.066 225.953c-.707.07-1.398.29-2.035.652l-42.01 24.247 45.3 82.51c.63-.09 1.25-.3 1.81-.624l42.13-24.336c1.3-.754 2.19-2.03 2.46-3.476l-46.18-78.89c-.34-.067-.68-.102-1.03-.102-.14 0-.28.007-.42.02"
         id="path3240" />
    </clipPath>
    <linearGradient
       id="f"
       x1=".043"
       x2=".984"
       gradientTransform="matrix(97.417,0,0,97.417,192.862,279.652)"
       gradientUnits="userSpaceOnUse">
      <stop
         offset=".16"
         stop-color="#6BBF47"
         id="stop3243" />
      <stop
         offset=".38"
         stop-color="#79B461"
         id="stop3245" />
      <stop
         offset=".47"
         stop-color="#75AC64"
         id="stop3247" />
      <stop
         offset=".7"
         stop-color="#659E5A"
         id="stop3249" />
      <stop
         offset=".9"
         stop-color="#3E863D"
         id="stop3251" />
    </linearGradient>
    <filter
       height="1.3067888"
       y="-0.15339439"
       width="1.0992678"
       x="-0.049633892"
       id="filter3400"
       style="color-interpolation-filters:sRGB"
       inkscape:collect="always">
      <feGaussianBlur
         id="feGaussianBlur3402"
         stdDeviation="2.106848"
         inkscape:collect="always" />
    </filter>
    <filter
       height="1.1993185"
       y="-0.099659256"
       width="1.1202467"
       x="-0.06012334"
       id="filter3406"
       style="color-interpolation-filters:sRGB"
       inkscape:collect="always">
      <feGaussianBlur
         id="feGaussianBlur3408"
         stdDeviation="1.8872812"
         inkscape:collect="always" />
    </filter>
    <filter
       height="1.1974589"
       y="-0.098729425"
       width="1.1209338"
       x="-0.060466898"
       id="filter3432"
       style="color-interpolation-filters:sRGB"
       inkscape:collect="always">
      <feGaussianBlur
         id="feGaussianBlur3434"
         stdDeviation="11.145309"
         inkscape:collect="always" />
    </filter>
  </defs>
  <sodipodi:namedview
     inkscape:window-maximized="1"
     inkscape:window-y="-6"
     inkscape:window-x="-6"
     inkscape:window-height="1018"
     inkscape:window-width="1920"
     showborder="false"
     showgrid="true"
     inkscape:document-rotation="0"
     inkscape:current-layer="layer1"
     inkscape:document-units="mm"
     inkscape:cy="678.07251"
     inkscape:cx="943.39201"
     inkscape:zoom="0.45215"
     inkscape:pageshadow="2"
     inkscape:pageopacity="0"
     borderopacity="1.0"
     bordercolor="#666666"
     pagecolor="#151515"
     id="base">
    <inkscape:grid
       originy="39.193897"
       originx="149.70245"
       spacingy="10"
       id="grid833"
       type="axonomgrid" />
  </sodipodi:namedview>
  <metadata
     id="metadata5">
    <rdf:RDF>
      <cc:Work
         rdf:about="">
        <dc:format>image/svg+xml</dc:format>
        <dc:type
           rdf:resource="http://purl.org/dc/dcmitype/StillImage" />
        <dc:title></dc:title>
      </cc:Work>
    </rdf:RDF>
  </metadata>
  <g
     transform="translate(149.70244,39.193896)"
     id="layer1"
     inkscape:groupmode="layer"
     inkscape:label="Layer 1">
    <path
       style="fill:#0b0b14;fill-opacity:0.68627453;stroke:none;stroke-width:0.264583px;stroke-linecap:butt;stroke-linejoin:miter;stroke-opacity:1"
       d="M -43.301267,174.99998 173.20508,300 303.10889,225 86.602542,99.999969 Z"
       id="path837" />
    <path
       style="opacity:0.5;fill:#2e2e50;stroke:none;stroke-width:0.264583px;stroke-linecap:butt;stroke-linejoin:miter;stroke-opacity:1;fill-opacity:1"
       d="m 8.6602835,155.00002 199.1858365,114.99999 8.66027,-4.99999 -199.185852,-115 z"
       id="path3454" />
    <path
       style="opacity:0.5;fill:#2e2e50;stroke:none;stroke-width:0.264583px;stroke-linecap:butt;stroke-linejoin:miter;stroke-opacity:1;fill-opacity:1"
       d="M -25.980742,175.00001 173.20509,290 l 8.66027,-4.99999 -199.185848,-115 z"
       id="path3450" />
    <path
       id="path3456"
       d="m 25.980789,145.00002 199.185831,114.99999 8.66027,-4.99999 -199.185847,-115 z"
       style="opacity:0.5;fill:#2e2e50;stroke:none;stroke-width:0.264583px;stroke-linecap:butt;stroke-linejoin:miter;stroke-opacity:1;fill-opacity:1" />
    <path
       id="path3452"
       d="m -8.6602234,165.00002 199.1858334,114.99999 8.66027,-4.99999 -199.185849410513,-115 z"
       style="opacity:0.5;fill:#2e2e50;stroke:none;stroke-width:0.264583px;stroke-linecap:butt;stroke-linejoin:miter;stroke-opacity:1;fill-opacity:1" />
    <path
       style="opacity:0.5;fill:#2e2e50;stroke:none;stroke-width:0.264583px;stroke-linecap:butt;stroke-linejoin:miter;stroke-opacity:1;fill-opacity:1"
       d="m 43.301302,135.00002 199.185828,114.99999 8.66027,-4.99999 -199.185844,-115 z"
       id="path3458" />
    <path
       id="path3460"
       d="m 60.621813,125.00002 199.185827,114.99999 8.66027,-4.99999 -199.185843,-115 z"
       style="opacity:0.5;fill:#2e2e50;stroke:none;stroke-width:0.264583px;stroke-linecap:butt;stroke-linejoin:miter;stroke-opacity:1;fill-opacity:1" />
    <path
       style="fill:none;stroke:url(#radialGradient3218);stroke-width:1;stroke-linecap:square;stroke-linejoin:miter;stroke-miterlimit:4;stroke-dasharray:2, 2;stroke-dashoffset:0;stroke-opacity:1;opacity:0.5"
       d="M 86.60255,150 V -59.999998"
       id="path3216" />
    <path
       style="opacity:0.5;fill:#2e2e50;stroke:none;stroke-width:0.264583px;stroke-linecap:butt;stroke-linejoin:miter;stroke-opacity:1;fill-opacity:1"
       d="M 77.942322,115.00003 277.12815,230.00001 285.78842,225.00002 86.602576,110.00003 Z"
       id="path3462" />
    <path
       id="path839"
       d="M -43.301268,124.99998 173.20508,250 303.10889,175 86.602541,49.999969 Z"
       style="fill:url(#radialGradient2916);stroke:url(#linearGradient2924);stroke-width:0.265;stroke-linecap:butt;stroke-linejoin:miter;stroke-opacity:1;fill-opacity:1;stroke-miterlimit:4;stroke-dasharray:none" />
    <path
       id="path3436"
       d="M -25.980753,125 173.20508,239.99999 181.86535,235 -17.320499,120 Z"
       style="fill:#008066;stroke:none;stroke-width:0.264583px;stroke-linecap:butt;stroke-linejoin:miter;stroke-opacity:1;opacity:0.5" />
    <path
       style="fill:#008066;stroke:none;stroke-width:0.264583px;stroke-linecap:butt;stroke-linejoin:miter;stroke-opacity:1;opacity:0.5"
       d="M -8.6602342,115.00001 190.5256,230 l 8.66027,-4.99999 -199.18585016742,-115 z"
       id="path3438" />
    <path
       id="path3440"
       d="M 8.6602727,105.00001 207.84611,220 l 8.66027,-4.99999 -199.185853,-115 z"
       style="fill:#008066;stroke:none;stroke-width:0.264583px;stroke-linecap:butt;stroke-linejoin:miter;stroke-opacity:1;opacity:0.5" />
    <path
       style="fill:#008066;stroke:none;stroke-width:0.264583px;stroke-linecap:butt;stroke-linejoin:miter;stroke-opacity:1;opacity:0.5"
       d="M 25.980778,95.000011 225.16661,210 233.82688,205.00001 34.641032,90.000011 Z"
       id="path3442" />
    <path
       id="path3444"
       d="M 43.301291,85.000012 242.48712,200 251.14739,195.00001 51.961545,80.000012 Z"
       style="fill:#008066;stroke:none;stroke-width:0.264583px;stroke-linecap:butt;stroke-linejoin:miter;stroke-opacity:1;opacity:0.5" />
    <path
       style="fill:#008066;stroke:none;stroke-width:0.264583px;stroke-linecap:butt;stroke-linejoin:miter;stroke-opacity:1;opacity:0.5"
       d="M 60.621802,75.000013 259.80763,190 268.4679,185.00001 69.282056,70.000013 Z"
       id="path3446" />
    <path
       id="path3448"
       d="M 77.942311,65.000014 277.12814,180 285.78841,175.00001 86.602565,60.000014 Z"
       style="fill:#008066;stroke:none;stroke-width:0.264583px;stroke-linecap:butt;stroke-linejoin:miter;stroke-opacity:1;opacity:0.5" />
    <path
       id="path835"
       d="M -43.301269,75 173.20508,200 303.10889,125 86.60254,0 Z"
       style="fill:#0b0b14;stroke:none;stroke-width:0.264583px;stroke-linecap:butt;stroke-linejoin:miter;stroke-opacity:1;fill-opacity:0.68627453" />
    <path
       id="path841"
       d="M 0,39.999999 216.50635,165 303.10889,115 86.60254,-10 Z"
       style="fill:#5500d4;stroke:none;stroke-width:0.264583px;stroke-linecap:butt;stroke-linejoin:miter;stroke-opacity:1" />
    <path
       id="path851"
       d="M 69.282031,0 285.78839,125 303.10889,115 86.60254,-10 Z"
       style="fill:#4400aa;stroke:none;stroke-width:0.264583px;stroke-linecap:butt;stroke-linejoin:miter;stroke-opacity:1" />
    <path
       id="path853"
       d="M 251.14738,95.000001 112.58331,15 8.6602644,75.000001 147.22433,155 Z"
       style="fill:#e5d5ff;stroke:none;stroke-width:0.264583px;stroke-linecap:butt;stroke-linejoin:miter;stroke-opacity:1" />
    <path
       id="path857"
       d="m 103.92306,10.000001 -34.641018,-20 L -34.641006,50 1.1302756e-5,70 Z"
       style="fill:#7f2aff;stroke:none;stroke-width:0.264583px;stroke-linecap:butt;stroke-linejoin:miter;stroke-opacity:1" />
    <path
       id="path859"
       d="m 268.46787,105 -8.66024,-5 -103.92305,60 8.66026,5 z"
       style="fill:#6600ff;stroke:none;stroke-width:0.264583px;stroke-linecap:butt;stroke-linejoin:miter;stroke-opacity:1" />
    <path
       style="fill:none;stroke:#00ffcc;stroke-width:1.32292;stroke-linecap:butt;stroke-linejoin:miter;stroke-miterlimit:4;stroke-dasharray:2.64583, 1.32292000000000010;stroke-dashoffset:0;stroke-opacity:1;filter:url(#filter2800)"
       d="m -103.92305,10 c 0,0 -3.88045,68.003349 17.32051,90 C -66.042242,121.33195 0,120 0,120"
       id="path2790"
       sodipodi:nodetypes="cac" />
    <path
       sodipodi:nodetypes="cac"
       id="path879"
       d="m -103.92305,10 c 0,0 -3.88045,68.003349 17.32051,90 C -66.042242,121.33195 0,120 0,120"
       style="fill:none;stroke:#00ffcc;stroke-width:1.32292;stroke-linecap:butt;stroke-linejoin:miter;stroke-miterlimit:4;stroke-dasharray:2.64583, 1.32292;stroke-dashoffset:0;stroke-opacity:1" />
    <circle
       style="fill:#002b22;fill-opacity:1;stroke:#005544;stroke-width:2.64583;stroke-linejoin:bevel;stroke-miterlimit:4;stroke-dasharray:5.29167, 2.64583000000000013;stroke-dashoffset:0;paint-order:stroke fill markers;filter:url(#filter2824)"
       id="circle2822"
       cx="-103.39465"
       cy="7.1263223"
       r="45" />
    <circle
       r="45"
       cy="7.1263223"
       cx="-103.39465"
       id="path863"
       style="fill:#002b22;fill-opacity:1;stroke:#005544;stroke-width:2.64583;stroke-linejoin:bevel;stroke-miterlimit:4;stroke-dasharray:5.29167, 2.64583;stroke-dashoffset:0;paint-order:stroke fill markers" />
    <path
       style="fill:none;stroke:#00ffcc;stroke-width:1.32292;stroke-linecap:butt;stroke-linejoin:miter;stroke-miterlimit:4;stroke-dasharray:2.64583, 1.32292000000000010;stroke-dashoffset:0;stroke-opacity:1;filter:url(#filter2818)"
       d="m 372.39093,34.999998 c 0,0 1.31973,65.795152 -17.32052,90.000002 -23.45513,30.45709 -103.92304,50 -103.92304,50"
       id="path2816"
       sodipodi:nodetypes="cac" />
    <path
       sodipodi:nodetypes="cac"
       id="path881"
       d="m 372.39093,34.999998 c 0,0 1.31973,65.795152 -17.32052,90.000002 -23.45513,30.45709 -103.92304,50 -103.92304,50"
       style="fill:none;stroke:#00ffcc;stroke-width:1.32292;stroke-linecap:butt;stroke-linejoin:miter;stroke-miterlimit:4;stroke-dasharray:2.64583, 1.32292;stroke-dashoffset:0;stroke-opacity:1" />
    <circle
       style="fill:#002b22;fill-opacity:1;stroke:#005544;stroke-width:2.64583;stroke-linejoin:bevel;stroke-miterlimit:4;stroke-dasharray:5.29167, 2.64583000000000013;stroke-dashoffset:0;paint-order:stroke fill markers;filter:url(#filter2842)"
       id="circle2840"
       cx="365.42938"
       cy="30.000002"
       r="45" />
    <circle
       r="45"
       cy="30.000002"
       cx="365.42938"
       id="path865"
       style="fill:#002b22;fill-opacity:1;stroke:#005544;stroke-width:2.64583;stroke-linejoin:bevel;stroke-miterlimit:4;stroke-dasharray:5.29167, 2.64583;stroke-dashoffset:0;paint-order:stroke fill markers" />
    <path
       style="fill:none;stroke:#00ffcc;stroke-width:1.32292;stroke-linecap:butt;stroke-linejoin:miter;stroke-miterlimit:4;stroke-dasharray:2.64583, 1.32292000000000010;stroke-dashoffset:0;stroke-opacity:1;filter:url(#filter2812)"
       d="m 355.07041,285.00001 c 0,0 -71.26042,33.32656 -103.92304,19.99998 C 232.37397,297.34031 216.50635,255 216.50635,255"
       id="path2810"
       sodipodi:nodetypes="cac" />
    <path
       sodipodi:nodetypes="cac"
       id="path883"
       d="m 355.07041,285.00001 c 0,0 -71.26042,33.32656 -103.92304,19.99998 C 232.37397,297.34031 216.50635,255 216.50635,255"
       style="fill:none;stroke:#00ffcc;stroke-width:1.32292;stroke-linecap:butt;stroke-linejoin:miter;stroke-miterlimit:4;stroke-dasharray:2.64583, 1.32292;stroke-dashoffset:0;stroke-opacity:1" />
    <circle
       style="fill:#002b22;fill-opacity:1;stroke:#005544;stroke-width:2.64583;stroke-linejoin:bevel;stroke-miterlimit:4;stroke-dasharray:5.29167, 2.64583000000000013;stroke-dashoffset:0;paint-order:stroke fill markers;filter:url(#filter2836)"
       id="circle2834"
       cx="357.82224"
       cy="281.43109"
       r="45" />
    <circle
       r="45"
       cy="281.43109"
       cx="357.82224"
       id="path869"
       style="fill:#002b22;fill-opacity:1;stroke:#005544;stroke-width:2.64583;stroke-linejoin:bevel;stroke-miterlimit:4;stroke-dasharray:5.29167, 2.64583;stroke-dashoffset:0;paint-order:stroke fill markers" />
    <path
       id="path2850"
       d="M 173.20509,350 V 140"
       style="fill:none;stroke:url(#radialGradient3202);stroke-width:1;stroke-linecap:square;stroke-linejoin:miter;stroke-miterlimit:4;stroke-dasharray:2, 2;stroke-dashoffset:0;stroke-opacity:1;opacity:0.5" />
    <path
       id="path2884"
       d="m 112.58331,24.999999 77.94227,45 -8.66023,5 L 103.92305,30 Z"
       style="fill:#b7b7c8;stroke:none;stroke-width:0.264583px;stroke-linecap:butt;stroke-linejoin:miter;stroke-opacity:1" />
    <path
       id="path2886"
       d="M 103.92305,40.000001 207.84611,99.999999"
       style="fill:none;stroke:#b7b7c8;stroke-width:2;stroke-linecap:butt;stroke-linejoin:miter;stroke-opacity:1;stroke-miterlimit:4;stroke-dasharray:none" />
    <path
       id="path2888"
       d="m 95.262801,44.999999 95.262779,55"
       style="fill:none;stroke:#b7b7c8;stroke-width:2;stroke-linecap:butt;stroke-linejoin:miter;stroke-opacity:1;stroke-miterlimit:4;stroke-dasharray:none" />
    <path
       id="path2890"
       d="M 86.602546,49.999999 190.52558,110"
       style="fill:none;stroke:#b7b7c8;stroke-width:2;stroke-linecap:butt;stroke-linejoin:miter;stroke-opacity:1;stroke-miterlimit:4;stroke-dasharray:none" />
    <path
       id="path2892"
       d="m 77.942292,55 86.602528,50"
       style="fill:none;stroke:#b7b7c8;stroke-width:2;stroke-linecap:butt;stroke-linejoin:miter;stroke-opacity:1;stroke-miterlimit:4;stroke-dasharray:none" />
    <path
       id="path2894"
       d="m 69.282041,60 95.262779,55"
       style="fill:none;stroke:#b7b7c8;stroke-width:2;stroke-linecap:butt;stroke-linejoin:miter;stroke-opacity:1;stroke-miterlimit:4;stroke-dasharray:none" />
    <path
       id="path2896"
       d="M 60.621786,65.000001 103.92305,89.999998"
       style="fill:none;stroke:#b7b7c8;stroke-width:2;stroke-linecap:butt;stroke-linejoin:miter;stroke-opacity:1;stroke-miterlimit:4;stroke-dasharray:none" />
    <path
       id="path2898"
       d="M 51.961532,69.999999 129.90383,115"
       style="fill:none;stroke:#b7b7c8;stroke-width:2;stroke-linecap:butt;stroke-linejoin:miter;stroke-opacity:1;stroke-miterlimit:4;stroke-dasharray:none" />
    <path
       id="path2900"
       d="M 69.282041,-5.146147e-7 86.602546,10.000001"
       style="fill:none;stroke:#e5d5ff;stroke-width:3;stroke-linecap:butt;stroke-linejoin:miter;stroke-opacity:1;stroke-miterlimit:4;stroke-dasharray:none;opacity:0.62580645" />
    <path
       id="path2902"
       d="M 60.621786,5 77.942292,15.000001"
       style="fill:none;stroke:#e5d5ff;stroke-width:3;stroke-linecap:butt;stroke-linejoin:miter;stroke-opacity:1;stroke-miterlimit:4;stroke-dasharray:none;opacity:0.62580645" />
    <path
       id="path2904"
       d="M 51.961532,10.000001 69.282041,20.000002"
       style="fill:none;stroke:#e5d5ff;stroke-width:3;stroke-linecap:butt;stroke-linejoin:miter;stroke-opacity:1;stroke-miterlimit:4;stroke-dasharray:none;opacity:0.62580645" />
    <path
       id="path2906"
       d="m 43.301278,15.000001 17.320508,9.999998"
       style="fill:none;stroke:#e5d5ff;stroke-width:3;stroke-linecap:butt;stroke-linejoin:miter;stroke-opacity:1;stroke-miterlimit:4;stroke-dasharray:none;opacity:0.62580645" />
    <path
       id="path2908"
       d="M 34.641024,20.000002 51.961532,30"
       style="fill:none;stroke:#e5d5ff;stroke-width:3;stroke-linecap:butt;stroke-linejoin:miter;stroke-opacity:1;stroke-miterlimit:4;stroke-dasharray:none;opacity:0.62580645" />
    <path
       style="fill:none;stroke:url(#radialGradient3210);stroke-width:1;stroke-linecap:square;stroke-linejoin:miter;stroke-miterlimit:4;stroke-dasharray:2, 2;stroke-dashoffset:0;stroke-opacity:1;opacity:0.5"
       d="M 303.1089,275 V 65.000001"
       id="path3208" />
    <path
       id="path3212"
       d="M -43.30126,225 V 15.000001"
       style="fill:none;stroke:url(#radialGradient3214);stroke-width:1;stroke-linecap:square;stroke-linejoin:miter;stroke-miterlimit:4;stroke-dasharray:2, 2;stroke-dashoffset:0;stroke-opacity:1;opacity:0.5" />
    <g
       style="filter:url(#filter3432)"
       id="g3430"
       transform="matrix(0.16184194,0,0,0.16184194,321.86365,260.22796)">
      <path
         id="path3410"
         d="m 218.647,270.93 c -1.46,0 -2.91,-0.383 -4.19,-1.12 l -13.337,-7.896 c -1.992,-1.114 -1.02,-1.508 -0.363,-1.735 2.656,-0.93 3.195,-1.14 6.03,-2.75 0.298,-0.17 0.688,-0.11 0.993,0.07 l 10.246,6.08 c 0.37,0.2 0.895,0.2 1.238,0 l 39.95,-23.06 c 0.37,-0.21 0.61,-0.64 0.61,-1.08 v -46.1 c 0,-0.46 -0.24,-0.87 -0.618,-1.1 l -39.934,-23.04 c -0.37,-0.22 -0.86,-0.22 -1.23,0 l -39.926,23.04 c -0.387,0.22 -0.633,0.65 -0.633,1.09 v 46.1 c 0,0.44 0.24,0.86 0.62,1.07 l 10.94,6.32 c 5.94,2.97 9.57,-0.53 9.57,-4.05 v -45.5 c 0,-0.65 0.51,-1.15 1.16,-1.15 h 5.06 c 0.63,0 1.15,0.5 1.15,1.15 v 45.52 c 0,7.92 -4.32,12.47 -11.83,12.47 -2.31,0 -4.13,0 -9.21,-2.5 l -10.48,-6.04 c -2.59,-1.5 -4.19,-4.3 -4.19,-7.29 v -46.1 c 0,-3 1.6,-5.8 4.19,-7.28 l 39.99,-23.07 c 2.53,-1.43 5.89,-1.43 8.4,0 l 39.94,23.08 c 2.58,1.49 4.19,4.28 4.19,7.28 v 46.1 c 0,2.99 -1.61,5.78 -4.19,7.28 l -39.94,23.07 c -1.28,0.74 -2.73,1.12 -4.21,1.12"
         fill="#689f63" />
      <path
         id="path3412"
         d="m 230.987,239.164 c -17.48,0 -21.145,-8.024 -21.145,-14.754 0,-0.64 0.516,-1.15 1.157,-1.15 h 5.16 c 0.57,0 1.05,0.415 1.14,0.978 0.78,5.258 3.1,7.91 13.67,7.91 8.42,0 12,-1.902 12,-6.367 0,-2.57 -1.02,-4.48 -14.1,-5.76 -10.94,-1.08 -17.7,-3.49 -17.7,-12.24 0,-8.06 6.8,-12.86 18.19,-12.86 12.79,0 19.13,4.44 19.93,13.98 0.03,0.33 -0.09,0.65 -0.31,0.89 -0.22,0.23 -0.53,0.37 -0.85,0.37 h -5.19 c -0.54,0 -1.01,-0.38 -1.12,-0.9 -1.25,-5.53 -4.27,-7.3 -12.48,-7.3 -9.19,0 -10.26,3.2 -10.26,5.6 0,2.91 1.26,3.76 13.66,5.4 12.28,1.63 18.11,3.93 18.11,12.56 0,8.7 -7.26,13.69 -19.92,13.69 m 48.66,-48.89 h 1.34 c 1.1,0 1.31,-0.77 1.31,-1.22 0,-1.18 -0.81,-1.18 -1.26,-1.18 h -1.38 z m -1.63,-3.78 h 2.97 c 1.02,0 3.02,0 3.02,2.28 0,1.59 -1.02,1.92 -1.63,2.12 1.19,0.08 1.27,0.86 1.43,1.96 0.08,0.69 0.21,1.88 0.45,2.28 h -1.83 c -0.05,-0.4 -0.33,-2.6 -0.33,-2.72 -0.12,-0.49 -0.29,-0.73 -0.9,-0.73 h -1.51 v 3.46 h -1.67 z m -3.57,4.3 c 0,3.58 2.89,6.48 6.44,6.48 3.58,0 6.47,-2.96 6.47,-6.48 0,-3.59 -2.93,-6.44 -6.48,-6.44 -3.5,0 -6.44,2.81 -6.44,6.43 m 14.16,0.03 c 0,4.24 -3.47,7.7 -7.7,7.7 -4.2,0 -7.7,-3.42 -7.7,-7.7 0,-4.36 3.58,-7.7 7.7,-7.7 4.15,0 7.69,3.35 7.69,7.7"
         fill="#689f63" />
      <path
         id="path3414"
         d="m 94.936,90.55 c 0,-1.84 -0.97,-3.53 -2.558,-4.445 L 50.022,61.735 c -0.715,-0.42 -1.516,-0.64 -2.328,-0.67 h -0.438 c -0.812,0.03 -1.613,0.25 -2.34,0.67 L 2.562,86.105 C 0.984,87.025 0,88.715 0,90.555 l 0.093,65.64 c 0,0.91 0.47,1.76 1.27,2.21 0.78,0.48 1.76,0.48 2.54,0 l 25.18,-14.42 c 1.59,-0.946 2.56,-2.618 2.56,-4.44 V 108.88 c 0,-1.83 0.97,-3.52 2.555,-4.43 l 10.72,-6.174 c 0.796,-0.46 1.67,-0.688 2.56,-0.688 0.876,0 1.77,0.226 2.544,0.687 l 10.715,6.172 c 1.586,0.91 2.56,2.6 2.56,4.43 v 30.663 c 0,1.82 0.983,3.5 2.565,4.44 l 25.164,14.41 c 0.79,0.47 1.773,0.47 2.56,0 0.776,-0.45 1.268,-1.3 1.268,-2.21 z m 199.868,34.176 c 0,0.457 -0.243,0.88 -0.64,1.106 l -14.548,8.386 c -0.395,0.227 -0.883,0.227 -1.277,0 l -14.55,-8.386 c -0.4,-0.227 -0.64,-0.65 -0.64,-1.106 V 107.93 c 0,-0.458 0.24,-0.88 0.63,-1.11 l 14.54,-8.4 c 0.4,-0.23 0.89,-0.23 1.29,0 l 14.55,8.4 c 0.4,0.23 0.64,0.652 0.64,1.11 z m 3.93,-124.402 c -0.794,-0.442 -1.76,-0.43 -2.544,0.027 -0.78,0.46 -1.262,1.3 -1.262,2.21 v 65 c 0,0.64 -0.34,1.23 -0.894,1.55 -0.55,0.32 -1.235,0.32 -1.79,0 L 281.634,63 c -1.58,-0.914 -3.526,-0.914 -5.112,0 l -42.37,24.453 c -1.583,0.91 -2.56,2.6 -2.56,4.42 v 48.92 c 0,1.83 0.977,3.51 2.56,4.43 l 42.37,24.47 c 1.582,0.91 3.53,0.91 5.117,0 l 42.37,-24.48 c 1.58,-0.92 2.56,-2.6 2.56,-4.43 V 18.863 c 0,-1.856 -1.01,-3.563 -2.63,-4.47 z m 141.093,107.164 c 1.574,-0.914 2.543,-2.602 2.543,-4.422 V 91.21 c 0,-1.824 -0.97,-3.507 -2.547,-4.425 l -42.1,-24.44 c -1.59,-0.92 -3.54,-0.92 -5.13,0 l -42.36,24.45 c -1.59,0.92 -2.56,2.6 -2.56,4.43 v 48.9 c 0,1.84 0.99,3.54 2.58,4.45 l 42.09,23.99 c 1.55,0.89 3.45,0.9 5.02,0.03 l 25.46,-14.15 c 0.8,-0.45 1.31,-1.3 1.31,-2.22 0,-0.92 -0.49,-1.78 -1.29,-2.23 l -42.62,-24.46 c -0.8,-0.45 -1.29,-1.3 -1.29,-2.21 v -15.34 c 0,-0.916 0.48,-1.76 1.28,-2.216 l 13.26,-7.65 c 0.79,-0.46 1.76,-0.46 2.55,0 l 13.27,7.65 c 0.79,0.45 1.28,1.3 1.28,2.21 v 12.06 c 0,0.91 0.49,1.76 1.28,2.22 0.79,0.45 1.77,0.45 2.56,-0.01 z m 0,0"
         fill-rule="evenodd"
         fill="#333333"
         style="fill:#ffffff" />
      <path
         id="path3416"
         d="m 394.538,105.2 c 0.3,-0.177 0.676,-0.177 0.98,0 l 8.13,4.69 c 0.304,0.176 0.49,0.5 0.49,0.85 v 9.39 c 0,0.35 -0.186,0.674 -0.49,0.85 l -8.13,4.69 c -0.304,0.177 -0.68,0.177 -0.98,0 l -8.125,-4.69 c -0.31,-0.176 -0.5,-0.5 -0.5,-0.85 v -9.39 c 0,-0.35 0.18,-0.674 0.49,-0.85 z m 0,0"
         fill-rule="evenodd"
         fill="#689f63" />
      <g
         id="g3420"
         transform="translate(-78.306,-164.016)"
         clip-path="url(#a)">
        <path
           id="path3418"
           d="m 331.363,246.793 -118.715,-58.19 -60.87,124.174 118.712,58.193 z m 0,0"
           fill="url(#b)"
           style="fill:url(#b)" />
      </g>
      <g
         id="g3424"
         transform="translate(-78.306,-164.016)"
         clip-path="url(#c)">
        <path
           id="path3422"
           d="m 144.07,264.004 83.825,113.453 110.86,-81.906 -83.83,-113.45 z m 0,0"
           fill="url(#d)"
           style="fill:url(#d)" />
      </g>
      <g
         id="g3428"
         transform="translate(-78.306,-164.016)"
         clip-path="url(#e)">
        <path
           id="path3426"
           d="m 197.02,225.934 v 107.43 h 91.683 v -107.43 z m 0,0"
           fill="url(#f)"
           style="fill:url(#f)" />
      </g>
    </g>
    <g
       transform="matrix(0.16184194,0,0,0.16184194,321.86365,260.22796)"
       id="g3312">
      <path
         fill="#689f63"
         d="m 218.647,270.93 c -1.46,0 -2.91,-0.383 -4.19,-1.12 l -13.337,-7.896 c -1.992,-1.114 -1.02,-1.508 -0.363,-1.735 2.656,-0.93 3.195,-1.14 6.03,-2.75 0.298,-0.17 0.688,-0.11 0.993,0.07 l 10.246,6.08 c 0.37,0.2 0.895,0.2 1.238,0 l 39.95,-23.06 c 0.37,-0.21 0.61,-0.64 0.61,-1.08 v -46.1 c 0,-0.46 -0.24,-0.87 -0.618,-1.1 l -39.934,-23.04 c -0.37,-0.22 -0.86,-0.22 -1.23,0 l -39.926,23.04 c -0.387,0.22 -0.633,0.65 -0.633,1.09 v 46.1 c 0,0.44 0.24,0.86 0.62,1.07 l 10.94,6.32 c 5.94,2.97 9.57,-0.53 9.57,-4.05 v -45.5 c 0,-0.65 0.51,-1.15 1.16,-1.15 h 5.06 c 0.63,0 1.15,0.5 1.15,1.15 v 45.52 c 0,7.92 -4.32,12.47 -11.83,12.47 -2.31,0 -4.13,0 -9.21,-2.5 l -10.48,-6.04 c -2.59,-1.5 -4.19,-4.3 -4.19,-7.29 v -46.1 c 0,-3 1.6,-5.8 4.19,-7.28 l 39.99,-23.07 c 2.53,-1.43 5.89,-1.43 8.4,0 l 39.94,23.08 c 2.58,1.49 4.19,4.28 4.19,7.28 v 46.1 c 0,2.99 -1.61,5.78 -4.19,7.28 l -39.94,23.07 c -1.28,0.74 -2.73,1.12 -4.21,1.12"
         id="path3256" />
      <path
         fill="#689f63"
         d="m 230.987,239.164 c -17.48,0 -21.145,-8.024 -21.145,-14.754 0,-0.64 0.516,-1.15 1.157,-1.15 h 5.16 c 0.57,0 1.05,0.415 1.14,0.978 0.78,5.258 3.1,7.91 13.67,7.91 8.42,0 12,-1.902 12,-6.367 0,-2.57 -1.02,-4.48 -14.1,-5.76 -10.94,-1.08 -17.7,-3.49 -17.7,-12.24 0,-8.06 6.8,-12.86 18.19,-12.86 12.79,0 19.13,4.44 19.93,13.98 0.03,0.33 -0.09,0.65 -0.31,0.89 -0.22,0.23 -0.53,0.37 -0.85,0.37 h -5.19 c -0.54,0 -1.01,-0.38 -1.12,-0.9 -1.25,-5.53 -4.27,-7.3 -12.48,-7.3 -9.19,0 -10.26,3.2 -10.26,5.6 0,2.91 1.26,3.76 13.66,5.4 12.28,1.63 18.11,3.93 18.11,12.56 0,8.7 -7.26,13.69 -19.92,13.69 m 48.66,-48.89 h 1.34 c 1.1,0 1.31,-0.77 1.31,-1.22 0,-1.18 -0.81,-1.18 -1.26,-1.18 h -1.38 z m -1.63,-3.78 h 2.97 c 1.02,0 3.02,0 3.02,2.28 0,1.59 -1.02,1.92 -1.63,2.12 1.19,0.08 1.27,0.86 1.43,1.96 0.08,0.69 0.21,1.88 0.45,2.28 h -1.83 c -0.05,-0.4 -0.33,-2.6 -0.33,-2.72 -0.12,-0.49 -0.29,-0.73 -0.9,-0.73 h -1.51 v 3.46 h -1.67 z m -3.57,4.3 c 0,3.58 2.89,6.48 6.44,6.48 3.58,0 6.47,-2.96 6.47,-6.48 0,-3.59 -2.93,-6.44 -6.48,-6.44 -3.5,0 -6.44,2.81 -6.44,6.43 m 14.16,0.03 c 0,4.24 -3.47,7.7 -7.7,7.7 -4.2,0 -7.7,-3.42 -7.7,-7.7 0,-4.36 3.58,-7.7 7.7,-7.7 4.15,0 7.69,3.35 7.69,7.7"
         id="path3258" />
      <path
         style="fill:#ffffff"
         fill="#333333"
         fill-rule="evenodd"
         d="m 94.936,90.55 c 0,-1.84 -0.97,-3.53 -2.558,-4.445 L 50.022,61.735 c -0.715,-0.42 -1.516,-0.64 -2.328,-0.67 h -0.438 c -0.812,0.03 -1.613,0.25 -2.34,0.67 L 2.562,86.105 C 0.984,87.025 0,88.715 0,90.555 l 0.093,65.64 c 0,0.91 0.47,1.76 1.27,2.21 0.78,0.48 1.76,0.48 2.54,0 l 25.18,-14.42 c 1.59,-0.946 2.56,-2.618 2.56,-4.44 V 108.88 c 0,-1.83 0.97,-3.52 2.555,-4.43 l 10.72,-6.174 c 0.796,-0.46 1.67,-0.688 2.56,-0.688 0.876,0 1.77,0.226 2.544,0.687 l 10.715,6.172 c 1.586,0.91 2.56,2.6 2.56,4.43 v 30.663 c 0,1.82 0.983,3.5 2.565,4.44 l 25.164,14.41 c 0.79,0.47 1.773,0.47 2.56,0 0.776,-0.45 1.268,-1.3 1.268,-2.21 z m 199.868,34.176 c 0,0.457 -0.243,0.88 -0.64,1.106 l -14.548,8.386 c -0.395,0.227 -0.883,0.227 -1.277,0 l -14.55,-8.386 c -0.4,-0.227 -0.64,-0.65 -0.64,-1.106 V 107.93 c 0,-0.458 0.24,-0.88 0.63,-1.11 l 14.54,-8.4 c 0.4,-0.23 0.89,-0.23 1.29,0 l 14.55,8.4 c 0.4,0.23 0.64,0.652 0.64,1.11 z m 3.93,-124.402 c -0.794,-0.442 -1.76,-0.43 -2.544,0.027 -0.78,0.46 -1.262,1.3 -1.262,2.21 v 65 c 0,0.64 -0.34,1.23 -0.894,1.55 -0.55,0.32 -1.235,0.32 -1.79,0 L 281.634,63 c -1.58,-0.914 -3.526,-0.914 -5.112,0 l -42.37,24.453 c -1.583,0.91 -2.56,2.6 -2.56,4.42 v 48.92 c 0,1.83 0.977,3.51 2.56,4.43 l 42.37,24.47 c 1.582,0.91 3.53,0.91 5.117,0 l 42.37,-24.48 c 1.58,-0.92 2.56,-2.6 2.56,-4.43 V 18.863 c 0,-1.856 -1.01,-3.563 -2.63,-4.47 z m 141.093,107.164 c 1.574,-0.914 2.543,-2.602 2.543,-4.422 V 91.21 c 0,-1.824 -0.97,-3.507 -2.547,-4.425 l -42.1,-24.44 c -1.59,-0.92 -3.54,-0.92 -5.13,0 l -42.36,24.45 c -1.59,0.92 -2.56,2.6 -2.56,4.43 v 48.9 c 0,1.84 0.99,3.54 2.58,4.45 l 42.09,23.99 c 1.55,0.89 3.45,0.9 5.02,0.03 l 25.46,-14.15 c 0.8,-0.45 1.31,-1.3 1.31,-2.22 0,-0.92 -0.49,-1.78 -1.29,-2.23 l -42.62,-24.46 c -0.8,-0.45 -1.29,-1.3 -1.29,-2.21 v -15.34 c 0,-0.916 0.48,-1.76 1.28,-2.216 l 13.26,-7.65 c 0.79,-0.46 1.76,-0.46 2.55,0 l 13.27,7.65 c 0.79,0.45 1.28,1.3 1.28,2.21 v 12.06 c 0,0.91 0.49,1.76 1.28,2.22 0.79,0.45 1.77,0.45 2.56,-0.01 z m 0,0"
         id="path3260" />
      <path
         fill="#689f63"
         fill-rule="evenodd"
         d="m 394.538,105.2 c 0.3,-0.177 0.676,-0.177 0.98,0 l 8.13,4.69 c 0.304,0.176 0.49,0.5 0.49,0.85 v 9.39 c 0,0.35 -0.186,0.674 -0.49,0.85 l -8.13,4.69 c -0.304,0.177 -0.68,0.177 -0.98,0 l -8.125,-4.69 c -0.31,-0.176 -0.5,-0.5 -0.5,-0.85 v -9.39 c 0,-0.35 0.18,-0.674 0.49,-0.85 z m 0,0"
         id="path3262" />
      <g
         clip-path="url(#a)"
         transform="translate(-78.306,-164.016)"
         id="g3266">
        <path
           style="fill:url(#b)"
           fill="url(#b)"
           d="m 331.363,246.793 -118.715,-58.19 -60.87,124.174 118.712,58.193 z m 0,0"
           id="path3264" />
      </g>
      <g
         clip-path="url(#c)"
         transform="translate(-78.306,-164.016)"
         id="g3270">
        <path
           style="fill:url(#d)"
           fill="url(#d)"
           d="m 144.07,264.004 83.825,113.453 110.86,-81.906 -83.83,-113.45 z m 0,0"
           id="path3268" />
      </g>
      <g
         clip-path="url(#e)"
         transform="translate(-78.306,-164.016)"
         id="g3274">
        <path
           style="fill:url(#f)"
           fill="url(#f)"
           d="m 197.02,225.934 v 107.43 h 91.683 v -107.43 z m 0,0"
           id="path3272" />
      </g>
    </g>
    <g
       style="fill-rule:evenodd;filter:url(#filter3400)"
       id="g3382"
       transform="matrix(0.63473515,0,0,0.63473515,-138.02473,-13.646803)">
      <g
         id="g3378"
         fill="none"
         transform="matrix(0.06928,0,0,0.06928,7.367398,13.505331)">
        <path
           id="path3368"
           style="fill:#ffffff"
           d="m 319.69599,237.62801 a 50.167,50.167 0 0 1 -50.167,50.167 50.167,50.167 0 0 1 -50.167,-50.167 50.167,50.167 0 0 1 50.167,-50.167 50.167,50.167 0 0 1 50.167,50.167" />
        <g
           id="g3376"
           stroke-width="24"
           stroke="#00d8ff">
          <path
             id="path3370"
             d="m 269.53,135.628 c 67.356,0 129.928,9.665 177.107,25.907 56.844,19.57 91.794,49.233 91.794,76.093 0,27.99 -37.04,59.503 -98.083,79.728 -46.15,15.29 -106.88,23.272 -170.818,23.272 -65.554,0 -127.63,-7.492 -174.3,-23.44 -59.046,-20.182 -94.61,-52.103 -94.61,-79.56 0,-26.642 33.37,-56.076 89.415,-75.616 47.355,-16.51 111.472,-26.384 179.486,-26.384 z"
             style="stroke:#ffffff" />
          <path
             id="path3372"
             d="m 180.736,186.922 c 33.65,-58.348 73.28,-107.724 110.92,-140.48 45.35,-39.466 88.507,-54.922 111.774,-41.505 24.248,13.983 33.042,61.814 20.067,124.796 -9.8,47.618 -33.234,104.212 -65.176,159.6 -32.75,56.788 -70.25,106.82 -107.377,139.272 -46.98,41.068 -92.4,55.93 -116.185,42.213 -23.08,-13.3 -31.906,-56.92 -20.834,-115.233 9.355,-49.27 32.832,-109.745 66.8,-168.664 z"
             style="stroke:#ffffff" />
          <path
             id="path3374"
             d="M 180.82,289.482 C 147.075,231.2 124.1,172.195 114.51,123.227 c -11.544,-59 -3.382,-104.11 19.864,-117.566 24.224,-14.024 70.055,2.244 118.14,44.94 36.356,32.28 73.688,80.837 105.723,136.173 32.844,56.733 57.46,114.21 67.036,162.582 12.117,61.213 2.31,107.984 -21.453,121.74 -23.057,13.348 -65.25,-0.784 -110.24,-39.5 -38.013,-32.71 -78.682,-83.253 -112.76,-142.115 z"
             style="stroke:#ffffff" />
        </g>
      </g>
      <path
         id="path3380"
         fill="#00d8ff"
         d="m 64.62,38.848 -4.26,-6.436 c 2.153,-0.19 4.093,-1.75 4.093,-4.6 0,-2.9 -2.058,-4.756 -4.945,-4.756 h -6.34 v 15.78 h 1.964 v -6.27 h 3.147 l 4.022,6.27 z m -5.347,-7.997 h -4.14 v -6.033 h 4.14 c 1.87,0 3.147,1.23 3.147,3.005 0,1.775 -1.278,3.03 -3.147,3.03 z m 12.658,8.28 c 1.87,0 3.407,-0.615 4.543,-1.75 l -0.852,-1.16 c -0.9,0.923 -2.224,1.443 -3.525,1.443 -2.46,0 -3.975,-1.798 -4.117,-3.95 h 9.25 v -0.45 c 0,-3.43 -2.035,-6.128 -5.49,-6.128 -3.265,0 -5.63,2.674 -5.63,5.986 0,3.573 2.437,6 5.82,6 z m 3.55,-6.72 h -7.5 c 0.095,-1.75 1.3,-3.81 3.738,-3.81 2.603,0 3.738,2.106 3.762,3.81 z m 13.534,6.436 v -7.855 c 0,-2.768 -2.01,-3.857 -4.424,-3.857 -1.87,0 -3.336,0.615 -4.566,1.893 l 0.828,1.23 c 1.017,-1.088 2.13,-1.585 3.502,-1.585 1.656,0 2.887,0.875 2.887,2.413 v 2.058 c -0.923,-1.065 -2.224,-1.562 -3.786,-1.562 -1.94,0 -4,1.207 -4,3.762 0,2.484 2.058,3.786 4,3.786 1.538,0 2.84,-0.544 3.786,-1.585 v 1.3 z m -4.92,-0.994 c -1.656,0 -2.816,-1.04 -2.816,-2.484 0,-1.467 1.16,-2.508 2.816,-2.508 1.254,0 2.46,0.473 3.147,1.42 v 2.153 c -0.686,0.946 -1.893,1.42 -3.147,1.42 z m 13.5,1.278 c 2.082,0 3.312,-0.852 4.188,-1.987 L 100.6,36.056 c -0.757,1.017 -1.727,1.49 -2.9,1.49 -2.437,0 -3.95,-1.893 -3.95,-4.424 0,-2.531 1.514,-4.4 3.95,-4.4 1.183,0 2.153,0.45 2.9,1.49 l 1.183,-1.088 c -0.875,-1.136 -2.106,-1.987 -4.188,-1.987 -3.407,0 -5.702,2.603 -5.702,5.986 0,3.407 2.295,6 5.702,6 z m 9.56,0 c 1.04,0 1.68,-0.308 2.13,-0.733 l -0.52,-1.325 c -0.237,0.26 -0.7,0.473 -1.207,0.473 -0.78,0 -1.16,-0.615 -1.16,-1.467 v -7.098 h 2.32 V 27.42 h -2.32 v -3.123 h -1.775 v 3.123 h -1.893 v 1.562 h 1.893 v 7.477 c 0,1.704 0.852,2.674 2.532,2.674 z"
         style="fill:#ffffff" />
    </g>
    <g
       transform="matrix(0.63473515,0,0,0.63473515,-138.02473,-13.646803)"
       id="g3343"
       style="fill-rule:evenodd">
      <g
         transform="matrix(0.06928,0,0,0.06928,7.367398,13.505331)"
         fill="none"
         id="g3324">
        <path
           d="m 319.69599,237.62801 a 50.167,50.167 0 0 1 -50.167,50.167 50.167,50.167 0 0 1 -50.167,-50.167 50.167,50.167 0 0 1 50.167,-50.167 50.167,50.167 0 0 1 50.167,50.167"
           style="fill:#ffffff"
           id="circle3314" />
        <g
           stroke="#00d8ff"
           stroke-width="24"
           id="g3322">
          <path
             style="stroke:#ffffff"
             d="m 269.53,135.628 c 67.356,0 129.928,9.665 177.107,25.907 56.844,19.57 91.794,49.233 91.794,76.093 0,27.99 -37.04,59.503 -98.083,79.728 -46.15,15.29 -106.88,23.272 -170.818,23.272 -65.554,0 -127.63,-7.492 -174.3,-23.44 -59.046,-20.182 -94.61,-52.103 -94.61,-79.56 0,-26.642 33.37,-56.076 89.415,-75.616 47.355,-16.51 111.472,-26.384 179.486,-26.384 z"
             id="path3316" />
          <path
             style="stroke:#ffffff"
             d="m 180.736,186.922 c 33.65,-58.348 73.28,-107.724 110.92,-140.48 45.35,-39.466 88.507,-54.922 111.774,-41.505 24.248,13.983 33.042,61.814 20.067,124.796 -9.8,47.618 -33.234,104.212 -65.176,159.6 -32.75,56.788 -70.25,106.82 -107.377,139.272 -46.98,41.068 -92.4,55.93 -116.185,42.213 -23.08,-13.3 -31.906,-56.92 -20.834,-115.233 9.355,-49.27 32.832,-109.745 66.8,-168.664 z"
             id="path3318" />
          <path
             style="stroke:#ffffff"
             d="M 180.82,289.482 C 147.075,231.2 124.1,172.195 114.51,123.227 c -11.544,-59 -3.382,-104.11 19.864,-117.566 24.224,-14.024 70.055,2.244 118.14,44.94 36.356,32.28 73.688,80.837 105.723,136.173 32.844,56.733 57.46,114.21 67.036,162.582 12.117,61.213 2.31,107.984 -21.453,121.74 -23.057,13.348 -65.25,-0.784 -110.24,-39.5 -38.013,-32.71 -78.682,-83.253 -112.76,-142.115 z"
             id="path3320" />
        </g>
      </g>
      <path
         style="fill:#ffffff"
         d="m 64.62,38.848 -4.26,-6.436 c 2.153,-0.19 4.093,-1.75 4.093,-4.6 0,-2.9 -2.058,-4.756 -4.945,-4.756 h -6.34 v 15.78 h 1.964 v -6.27 h 3.147 l 4.022,6.27 z m -5.347,-7.997 h -4.14 v -6.033 h 4.14 c 1.87,0 3.147,1.23 3.147,3.005 0,1.775 -1.278,3.03 -3.147,3.03 z m 12.658,8.28 c 1.87,0 3.407,-0.615 4.543,-1.75 l -0.852,-1.16 c -0.9,0.923 -2.224,1.443 -3.525,1.443 -2.46,0 -3.975,-1.798 -4.117,-3.95 h 9.25 v -0.45 c 0,-3.43 -2.035,-6.128 -5.49,-6.128 -3.265,0 -5.63,2.674 -5.63,5.986 0,3.573 2.437,6 5.82,6 z m 3.55,-6.72 h -7.5 c 0.095,-1.75 1.3,-3.81 3.738,-3.81 2.603,0 3.738,2.106 3.762,3.81 z m 13.534,6.436 v -7.855 c 0,-2.768 -2.01,-3.857 -4.424,-3.857 -1.87,0 -3.336,0.615 -4.566,1.893 l 0.828,1.23 c 1.017,-1.088 2.13,-1.585 3.502,-1.585 1.656,0 2.887,0.875 2.887,2.413 v 2.058 c -0.923,-1.065 -2.224,-1.562 -3.786,-1.562 -1.94,0 -4,1.207 -4,3.762 0,2.484 2.058,3.786 4,3.786 1.538,0 2.84,-0.544 3.786,-1.585 v 1.3 z m -4.92,-0.994 c -1.656,0 -2.816,-1.04 -2.816,-2.484 0,-1.467 1.16,-2.508 2.816,-2.508 1.254,0 2.46,0.473 3.147,1.42 v 2.153 c -0.686,0.946 -1.893,1.42 -3.147,1.42 z m 13.5,1.278 c 2.082,0 3.312,-0.852 4.188,-1.987 L 100.6,36.056 c -0.757,1.017 -1.727,1.49 -2.9,1.49 -2.437,0 -3.95,-1.893 -3.95,-4.424 0,-2.531 1.514,-4.4 3.95,-4.4 1.183,0 2.153,0.45 2.9,1.49 l 1.183,-1.088 c -0.875,-1.136 -2.106,-1.987 -4.188,-1.987 -3.407,0 -5.702,2.603 -5.702,5.986 0,3.407 2.295,6 5.702,6 z m 9.56,0 c 1.04,0 1.68,-0.308 2.13,-0.733 l -0.52,-1.325 c -0.237,0.26 -0.7,0.473 -1.207,0.473 -0.78,0 -1.16,-0.615 -1.16,-1.467 v -7.098 h 2.32 V 27.42 h -2.32 v -3.123 h -1.775 v 3.123 h -1.893 v 1.562 h 1.893 v 7.477 c 0,1.704 0.852,2.674 2.532,2.674 z"
         fill="#00d8ff"
         id="path3326" />
    </g>
    <path
       d="m 346.52431,17.312475 h 14.20913 v 1.129361 h -12.90663 v 8.499931 h 12.13697 v 1.129361 h -12.13697 v 9.33209 h 13.05464 v 1.129361 h -14.35714 z m 15.48203,0 h 1.50973 l 6.69013,9.332091 6.83815,-9.332091 9.30099,-11.8539008 -15.28067,22.1667528 7.87422,10.907252 h -1.56892 l -7.16377,-9.92649 -7.19337,9.92649 h -1.53933 l 7.93344,-10.907252 z m 17.495,1.129361 v -1.129361 h 16.19249 v 1.129361 h -7.45979 v 20.090743 h -1.30251 V 18.441836 Z M 328.7481,17.312475 h 1.62813 l 22.45096,33.595714 -9.27791,-12.37561 -13.43947,-19.615222 -0.0592,19.615222 h -1.30251 z m 66.81449,19.749926 c -0.2661,0 -0.46569,-0.206187 -0.46569,-0.472646 0,-0.266457 0.19959,-0.472645 0.46569,-0.472645 0.26929,0 0.4657,0.206188 0.4657,0.472645 0,0.266459 -0.19641,0.472646 -0.4657,0.472646 z m 1.27988,-1.243469 h 0.69695 c 0.009,0.377481 0.28512,0.631251 0.69062,0.631251 0.45302,0 0.70963,-0.272803 0.70963,-0.783513 v -3.23556 h 0.70963 v 3.238732 c 0,0.919913 -0.53222,1.449657 -1.41292,1.449657 -0.82685,0 -1.39391,-0.513882 -1.39391,-1.300567 z m 3.73505,-0.04124 h 0.70329 c 0.0602,0.434581 0.48471,0.710555 1.09613,0.710555 0.57023,0 0.98841,-0.295006 0.98841,-0.701038 0,-0.348934 -0.26611,-0.558292 -0.8712,-0.701039 l -0.58924,-0.142744 c -0.82684,-0.1935 -1.20384,-0.593186 -1.20384,-1.265674 0,-0.815234 0.66528,-1.357667 1.66319,-1.357667 0.92822,0 1.60617,0.542433 1.64736,1.313256 H 403.321 c -0.0665,-0.421891 -0.43402,-0.685177 -0.96624,-0.685177 -0.56074,0 -0.93456,0.26963 -0.93456,0.682006 0,0.326728 0.24078,0.513883 0.83636,0.653456 l 0.50371,0.123712 c 0.93772,0.218876 1.32421,0.599529 1.32421,1.28788 0,0.875503 -0.67795,1.42428 -1.7614,1.42428 -1.01375,0 -1.69487,-0.5234 -1.74556,-1.341806 z"
       fill="#000000"
       fill-rule="nonzero"
       id="path3404"
       style="stroke-width:0.147141;fill:#ffffff;filter:url(#filter3406)" />
    <path
       style="stroke-width:0.147141;fill:#ffffff"
       id="path3345"
       fill-rule="nonzero"
       fill="#000000"
       d="m 346.52431,17.312475 h 14.20913 v 1.129361 h -12.90663 v 8.499931 h 12.13697 v 1.129361 h -12.13697 v 9.33209 h 13.05464 v 1.129361 h -14.35714 z m 15.48203,0 h 1.50973 l 6.69013,9.332091 6.83815,-9.332091 9.30099,-11.8539008 -15.28067,22.1667528 7.87422,10.907252 h -1.56892 l -7.16377,-9.92649 -7.19337,9.92649 h -1.53933 l 7.93344,-10.907252 z m 17.495,1.129361 v -1.129361 h 16.19249 v 1.129361 h -7.45979 v 20.090743 h -1.30251 V 18.441836 Z M 328.7481,17.312475 h 1.62813 l 22.45096,33.595714 -9.27791,-12.37561 -13.43947,-19.615222 -0.0592,19.615222 h -1.30251 z m 66.81449,19.749926 c -0.2661,0 -0.46569,-0.206187 -0.46569,-0.472646 0,-0.266457 0.19959,-0.472645 0.46569,-0.472645 0.26929,0 0.4657,0.206188 0.4657,0.472645 0,0.266459 -0.19641,0.472646 -0.4657,0.472646 z m 1.27988,-1.243469 h 0.69695 c 0.009,0.377481 0.28512,0.631251 0.69062,0.631251 0.45302,0 0.70963,-0.272803 0.70963,-0.783513 v -3.23556 h 0.70963 v 3.238732 c 0,0.919913 -0.53222,1.449657 -1.41292,1.449657 -0.82685,0 -1.39391,-0.513882 -1.39391,-1.300567 z m 3.73505,-0.04124 h 0.70329 c 0.0602,0.434581 0.48471,0.710555 1.09613,0.710555 0.57023,0 0.98841,-0.295006 0.98841,-0.701038 0,-0.348934 -0.26611,-0.558292 -0.8712,-0.701039 l -0.58924,-0.142744 c -0.82684,-0.1935 -1.20384,-0.593186 -1.20384,-1.265674 0,-0.815234 0.66528,-1.357667 1.66319,-1.357667 0.92822,0 1.60617,0.542433 1.64736,1.313256 H 403.321 c -0.0665,-0.421891 -0.43402,-0.685177 -0.96624,-0.685177 -0.56074,0 -0.93456,0.26963 -0.93456,0.682006 0,0.326728 0.24078,0.513883 0.83636,0.653456 l 0.50371,0.123712 c 0.93772,0.218876 1.32421,0.599529 1.32421,1.28788 0,0.875503 -0.67795,1.42428 -1.7614,1.42428 -1.01375,0 -1.69487,-0.5234 -1.74556,-1.341806 z" />
    <circle
       r="4.3301272"
       cy="119.38034"
       cx="6.2401757"
       id="path3706"
       style="opacity:1;fill:#00ffcc;fill-opacity:1;stroke:#00ffcc;stroke-width:1;stroke-linecap:square;stroke-linejoin:round;stroke-miterlimit:4;stroke-dasharray:2, 2;stroke-dashoffset:0;stroke-opacity:1;paint-order:stroke fill markers" />
    <circle
       style="opacity:1;fill:#00ffcc;fill-opacity:1;stroke:#00ffcc;stroke-width:1;stroke-linecap:square;stroke-linejoin:round;stroke-miterlimit:4;stroke-dasharray:2, 2;stroke-dashoffset:0;stroke-opacity:1;paint-order:stroke fill markers"
       id="circle3710"
       cx="245.85178"
       cy="176.73846"
       r="4.3301272" />
    <circle
       r="4.3301272"
       cy="249.83669"
       cx="214.06667"
       id="circle3712"
       style="opacity:1;fill:#00ffcc;fill-opacity:1;stroke:#00ffcc;stroke-width:1;stroke-linecap:square;stroke-linejoin:round;stroke-miterlimit:4;stroke-dasharray:2, 2;stroke-dashoffset:0;stroke-opacity:1;paint-order:stroke fill markers" />
  </g>
</svg>
